<svg id="eRboS7AJgq41" fill='currentcolor' xmlns="http://www.w3.org/2000/svg" xmlns:xlink="http://www.w3.org/1999/xlink" viewBox="-1 0 66 32.18" shape-rendering="geometricPrecision" text-rendering="geometricPrecision"><g><path d="M30.037,29.924c-.67-.611-1.525-2.094-2.567-4.447L16.539,0.625h-.424L5.276,24.805c-1.028,2.311-1.893,3.834-2.593,4.57-.7.738-1.595,1.189-2.683,1.352v.828h10.079v-.828c-1.579-.119-2.568-.297-2.972-.535-.687-.401-1.029-1.026-1.029-1.877c0-.641.209-1.453.627-2.438l1.273-2.949h10.705l1.608,3.777c.416.98.642,1.541.67,1.676.091.283.135.559.135.826c0,.447-.163.791-.49,1.029-.479.328-1.305.488-2.48.488h-.604v.828h14.659v-.828c-.92-.071-1.636-.339-2.144-.8ZM8.764,21.274l4.647-10.436l4.516,10.436h-9.163Z"/>
<text dx="0" dy="0" font-family="&quot;eRboS7AJgq41:::Lora&quot;" font-size="2.8045" font-weight="400" transform="matrix(4.963591 0 0 4.932059 32.412722 13.774824)" stroke-width="0">
<tspan y="0" font-family="&quot;eRboS7AJgq41:::Lora&quot;" font-weight="400" stroke-width="0">lpha</tspan>
<tspan x="0" y="2.8045" font-family="&quot;eRboS7AJgq41:::Lora&quot;" font-weight="400" stroke-width="0">Type</tspan> </text>
</g></svg>
