<svg id="eNZ9klMe2Kf1" xmlns="http://www.w3.org/2000/svg" xmlns:xlink="http://www.w3.org/1999/xlink" viewBox="0 25 375 75" shape-rendering="geometricPrecision" text-rendering="geometricPrecision"><rect width="7.99" height="8" rx="2" ry="2" transform="translate(35.96 41.99)" fill="currentcolor" stroke-width="0"/><rect width="7.99" height="8" rx="2" ry="2" transform="translate(48.05 41.99)" fill="currentcolor" stroke-width="0"/><rect width="7.99" height="8" rx="2" ry="2" transform="translate(60.001 41.99)" fill="currentcolor" stroke-width="0"/><rect width="7.99" height="8" rx="2" ry="2" transform="matrix(2.52691 0 0 1 95.83 41.99)" fill="currentcolor" stroke-width="0"/><rect width="21.7657" height="8" rx="0" ry="0" transform="matrix(2.52691 0 0 1 36.88 77.97)" fill="currentcolor" stroke-width="0"/><rect width="7.99" height="8" rx="2" ry="2" transform="translate(85.17 41.99)" fill="currentcolor" stroke-width="0"/><rect width="7.99" height="8" rx="2" ry="2" transform="translate(72.1 41.99)" fill="currentcolor" stroke-width="0"/><rect width="7.99" height="8" rx="2" ry="2" transform="translate(24.895 41.99)" fill="currentcolor" stroke-width="0"/><rect width="7.99" height="8" rx="2" ry="2" transform="translate(95.615 53.98)" fill="currentcolor" stroke-width="0"/><rect width="7.99" height="8" rx="2" ry="2" transform="translate(108.03 53.98)" fill="currentcolor" stroke-width="0"/><rect width="7.99" height="8" rx="2" ry="2" transform="translate(81.175 53.98)" fill="currentcolor" stroke-width="0"/><rect width="7.99" height="8" rx="2" ry="2" transform="translate(68.105 53.98)" fill="currentcolor" stroke-width="0"/><rect width="7.99" height="8" rx="2" ry="2" transform="translate(56.006 53.98)" fill="currentcolor" stroke-width="0"/><rect width="7.99" height="8" rx="2" ry="2" transform="translate(42.4445 53.98)" fill="currentcolor" stroke-width="0"/><rect width="7.99" height="8" rx="2" ry="2" transform="translate(28.89 53.98)" fill="currentcolor" stroke-width="0"/><rect width="7.99" height="8" rx="2" ry="2" transform="translate(108.06 65.97)" fill="currentcolor" stroke-width="0"/><rect width="7.99" height="8" rx="2" ry="2" transform="translate(97.48 65.97)" fill="currentcolor" stroke-width="0"/><rect width="7.99" height="8" rx="2" ry="2" transform="translate(85.17 65.97)" fill="currentcolor" stroke-width="0"/><rect width="7.99" height="8" rx="2" ry="2" transform="translate(72.1 65.97)" fill="currentcolor" stroke-width="0"/><rect width="7.99" height="8" rx="2" ry="2" transform="translate(60.001 65.97)" fill="currentcolor" stroke-width="0"/><rect width="7.99" height="8" rx="2" ry="2" transform="translate(48.05 65.97)" fill="currentcolor" stroke-width="0"/><rect width="7.99" height="8" rx="2" ry="2" transform="translate(34.4545 65.97)" fill="currentcolor" stroke-width="0"/><rect width="7.99" height="8" rx="2" ry="2" transform="translate(108.03 77.97)" fill="currentcolor" stroke-width="0"/><rect width="7.99" height="8" rx="2" ry="2" transform="translate(95.83 77.97)" fill="currentcolor" stroke-width="0"/><rect width="7.99" height="8" rx="2" ry="2" transform="translate(24.445 77.97)" fill="currentcolor" stroke-width="0"/><rect width="7.99" height="8" rx="2" ry="2" transform="translate(11.99 77.97)" fill="currentcolor" stroke-width="0"/><rect width="7.99" height="8" rx="2" ry="2" transform="translate(12 41.99)" fill="currentcolor" stroke-width="0"/><rect width="11.97" height="8" rx="2" ry="2" transform="matrix(1.0025 0 0 1 11.99 53.98)" fill="currentcolor" stroke-width="0"/><rect width="15.9601" height="8" rx="2" ry="2" transform="matrix(1.0025 0 0 1 12.44 65.97)" fill="currentcolor" stroke-width="0"/>
<g>

<text dx="0" dy="0" font-family="Sf Pro text Medium" src= 'https://fonts.googleapis.com/css2?family=Montserrat:ital,wght@0,100..900;1,100..900display=swap' format="truetype" font-size="12" font-weight="600" letter-spacing="0.8" transform="matrix(2.180637 0 0 2.35 131.085255 73.52097)" fill="currentcolor" stroke-width="0">
Alpha Type</text>

<text dx="73" dy="0" font-family="Sf Pro display" src= 'https://fonts.googleapis.com/css2?family=Montserrat:ital,wght@0,100..900;1,100..900display=swap' format="truetype" font-size="8"  letter-spacing="0" transform="matrix(2.180637 0 0 2.3 131.085255 73.52097)" fill="currentcolor" stroke-width="0">
.online</text></g>
</svg>