<svg id="eXrwqiFajeB1" xmlns="http://www.w3.org/2000/svg" xmlns:xlink="http://www.w3.org/1999/xlink" viewBox="0 0 300 300" shape-rendering="geometricPrecision" text-rendering="geometricPrecision"><rect width="50" height="50" rx="10" ry="10" transform="translate(29.310346 65.297139)" fill="currentcolor" stroke-width="0"/><rect width="50" height="50" rx="10" ry="10" transform="translate(90.939106 65.297139)" fill="currentcolor" stroke-width="0"/><rect width="50" height="50" rx="10" ry="10" transform="translate(150 65.297139)" fill="currentcolor" stroke-width="0"/><rect width="50" height="50" rx="10" ry="10" transform="translate(209.794571 65.297139)" fill="currentcolor" stroke-width="0"/><rect width="50" height="50" rx="10" ry="10" transform="translate(219.222304 185.619957)" fill="currentcolor" stroke-width="0"/><rect width="50.193365" height="50" rx="6" ry="6" transform="matrix(2.490369 0 0 1 87.5 185.619957)" fill="currentcolor" stroke-width="0"/><rect width="50" height="50" rx="10" ry="10" transform="translate(29.310346 185.619957)" fill="currentcolor" stroke-width="0"/><rect width="50" height="50" rx="10" ry="10" transform="translate(184.794571 125)" fill="currentcolor" stroke-width="0"/><rect width="50" height="50" rx="10" ry="10" transform="translate(244.222304 125)" fill="currentcolor" stroke-width="0"/><rect width="50" height="50" rx="10" ry="10" transform="translate(125.000001 125)" fill="currentcolor" stroke-width="0"/><rect width="50" height="50" rx="10" ry="10" transform="translate(65.939105 125)" fill="currentcolor" stroke-width="0"/><rect width="50" height="50" rx="10" ry="10" transform="translate(4.310345 125)" fill="currentcolor" stroke-width="0"/></svg>
