<svg id="eDtYUuXFc1M1" xmlns="http://www.w3.org/2000/svg" xmlns:xlink="http://www.w3.org/1999/xlink" viewBox="0 0 1024 1024" shape-rendering="geometricPrecision" text-rendering="geometricPrecision"><rect width="100" height="100" rx="20" ry="20" transform="translate(55.016722 251.065794)" fill="currentcolor" stroke-width="0"/><rect width="100" height="100" rx="20" ry="20" transform="translate(-94.983278 251.065794)" fill="currentcolor" stroke-width="0"/><rect width="100" height="100" rx="20" ry="20" transform="translate(-44.983278 412)" fill="currentcolor" stroke-width="0"/><rect width="100" height="100" rx="20" ry="20" transform="translate(-44.983278 702.652162)" fill="currentcolor" stroke-width="0"/><rect width="100" height="100" rx="20" ry="20" transform="translate(654.989123 251.065794)" fill="currentcolor" stroke-width="0"/><rect width="100" height="100" rx="20" ry="20" transform="translate(805.604331 251.065794)" fill="currentcolor" stroke-width="0"/><rect width="100" height="100" rx="20" ry="20" transform="translate(955.604331 251.065794)" fill="currentcolor" stroke-width="0"/><rect width="100" height="100" rx="20" ry="20" transform="translate(955.604331 559.66304)" fill="currentcolor" stroke-width="0"/><rect width="100" height="100" rx="20" ry="20" transform="translate(855.604331 412)" fill="currentcolor" stroke-width="0"/><rect width="100" height="100" rx="20" ry="20" transform="translate(805.604334 559.66304)" fill="currentcolor" stroke-width="0"/><rect width="100" height="100" rx="20" ry="20" transform="translate(855.604331 702.652162)" fill="currentcolor" stroke-width="0"/><rect width="100" height="100" rx="20" ry="20" transform="translate(654.989124 559.66304)" fill="currentcolor" stroke-width="0"/><rect width="100" height="100" rx="20" ry="20" transform="translate(512.000005 559.66304)" fill="currentcolor" stroke-width="0"/><rect width="100" height="100" rx="20" ry="20" transform="translate(353.910177 559.66304)" fill="currentcolor" stroke-width="0"/><rect width="100" height="100" rx="20" ry="20" transform="translate(203.294971 559.66304)" fill="currentcolor" stroke-width="0"/><rect width="100" height="100" rx="20" ry="20" transform="translate(55.016722 559.66304)" fill="currentcolor" stroke-width="0"/><rect width="100" height="100" rx="20" ry="20" transform="translate(105.016722 702.652162)" fill="currentcolor" stroke-width="0"/><rect width="500" height="100" rx="20" ry="20" transform="translate(279.986271 702.652162)" fill="currentcolor" stroke-width="0"/><rect width="100" height="100" rx="20" ry="20" transform="translate(704.989122 412)" fill="currentcolor" stroke-width="0"/><rect width="100" height="100" rx="20" ry="20" transform="translate(562.000002 412)" fill="currentcolor" stroke-width="0"/><rect width="100" height="100" rx="20" ry="20" transform="translate(403.910175 412)" fill="currentcolor" stroke-width="0"/><rect width="100" height="100" rx="20" ry="20" transform="translate(253.294969 412)" fill="currentcolor" stroke-width="0"/><rect width="100" height="100" rx="20" ry="20" transform="translate(105.01672 412)" fill="currentcolor" stroke-width="0"/><rect width="100" height="100" rx="20" ry="20" transform="translate(512.000002 251.065794)" fill="currentcolor" stroke-width="0"/><rect width="100" height="100" rx="20" ry="20" transform="translate(353.910176 251.065794)" fill="currentcolor" stroke-width="0"/><rect width="100" height="100" rx="20" ry="20" transform="translate(203.29497 251.065794)" fill="currentcolor" stroke-width="0"/><rect width="100" height="100" rx="20" ry="20" transform="translate(-94.983278 569.454904)" fill="currentcolor" stroke-width="0"/><rect width="100" height="100" rx="20" ry="20" transform="translate(1005.604331 412)" fill="currentcolor" stroke-width="0"/><rect width="100" height="100" rx="20" ry="20" transform="translate(1005.604331 702.652162)" fill="currentcolor" stroke-width="0"/></svg>
