<svg id="eDwA5GXEh8z1" xmlns="http://www.w3.org/2000/svg" xmlns:xlink="http://www.w3.org/1999/xlink" viewBox="58 29 60 60" shape-rendering="geometricPrecision" text-rendering="geometricPrecision"><defs><linearGradient id="eDwA5GXEh8z2-fill" x1="-93.047" y1="-73.413" x2="-93.047" y2="-17.291" spreadMethod="pad" gradientUnits="userSpaceOnUse" gradientTransform="translate(0 0)"><stop id="eDwA5GXEh8z2-fill-0" offset="0.5%" stop-color="#000"/><stop id="eDwA5GXEh8z2-fill-1" offset="28.2%" stop-color="#eaeaea"/><stop id="eDwA5GXEh8z2-fill-2" offset="57.7%" stop-color="#ddd"/><stop id="eDwA5GXEh8z2-fill-3" offset="87.9%" stop-color="#c8c8c8"/><stop id="eDwA5GXEh8z2-fill-4" offset="100%" stop-color="#bdbdbd"/></linearGradient><linearGradient id="eDwA5GXEh8z5-fill" x1="46.43" y1="-117.497" x2="46.43" y2="-61.374" spreadMethod="pad" gradientUnits="userSpaceOnUse" gradientTransform="translate(0 0)"><stop id="eDwA5GXEh8z5-fill-0" offset="1.1%" stop-color="#616161"/><stop id="eDwA5GXEh8z5-fill-1" offset="25%" stop-color="#5d5d5d"/><stop id="eDwA5GXEh8z5-fill-2" offset="50.4%" stop-color="#505050"/><stop id="eDwA5GXEh8z5-fill-3" offset="76.6%" stop-color="#3b3b3b"/><stop id="eDwA5GXEh8z5-fill-4" offset="100%" stop-color="#212121"/></linearGradient></defs><path d="M-42.13,-44.72L-48,-72.13c-.47-2.21-2.11-3.82-3.99-3.81-5.36,0-15.39-.05-16.6-.05h-44.08c-.61,0-2.56.06-4.11,1.79-4.7,5.27-12.54,20.52-13.76,22.07-.08.1-6.27,2.31-9.09,4-1.12.67-1.74,2.13-1.9,3.63l-2.46,20.75c-.64,4.1,1.7,5.76,5.37,5.76h91.51c2.8,0,5.11-.68,5.11-5.69v-19.79c0-.43-.05-.85-.13-1.25Z" fill="url(#eDwA5GXEh8z2-fill)"/><g opacity="0.2"><path d="M-51.98,-73c.36,0,.87.59,1.05,1.44l5.86,27.43c.04.2.07.44.07.66v19.79c0,2.81-.49,2.69-2.11,2.69h-91.51c-1.3,0-2.02-.23-2.25-.5s-.3-.92-.16-1.77c.01-.04.01-.06.02-.09l2.47-20.83c.08-.8.36-1.28.46-1.36c1.87-1.12,5.83-2.66,7.51-3.31c1.46-.57,1.86-.72,2.39-1.39.5-.63,1.28-2,2.99-5.03c2.85-5.03,7.61-13.53,10.65-16.93.57-.64,1.22-.79,1.87-.79h44.08h9.21h7.4-.02m.02-3.01h-16.6-44.08c-.65,0-2.57.08-4.1,1.79-4.7,5.27-12.54,20.52-13.76,22.07-.08.1-6.27,2.31-9.09,4-1.12.67-1.74,2.13-1.9,3.63l-2.46,20.75c-.64,4.1,1.7,5.76,5.37,5.76h91.51c2.8,0,5.11-.68,5.11-5.69v-19.79c-.002617-.416593-.046159-.831922-.13-1.24l-5.87-27.47c-.49-2.21-2.13-3.81-4-3.81v0Z" fill="#424242"/></g><path d="M97.35,-88.93l-5.86-27.41c-.47-2.21-2.11-3.75-3.99-3.75l-16.6.01h-44.08c-.61,0-2.56-.01-4.11,1.73-4.71,5.28-12.55,20.49-13.76,22.04-.08.1-6.27,2.3-9.09,3.99-1.12.67-1.74,2.12-1.9,3.62L-4.5,-67.9c-.64,4.1,1.7,5.82,5.37,5.82h91.51c2.8,0,5.1-.8,5.1-5.81v-19.79c-.01-.43-.05-.84-.13-1.25Z" fill="url(#eDwA5GXEh8z5-fill)"/><g opacity="0.2"><path d="M87.5,-117.08c.36,0,.87.53,1.05,1.38l5.86,27.4c.04.2.06.41.06.63v19.79c0,2.81-.49,2.81-2.1,2.81h-91.51c-1.3,0-2.02-.29-2.25-.56s-.3-.95-.16-1.8l.01-.05.01-.05l2.47-20.84c.08-.8.36-1.28.46-1.36c1.87-1.12,5.83-2.66,7.51-3.31c1.46-.57,1.86-.72,2.39-1.39.5-.63,1.28-2,2.99-5.03c2.85-5.03,7.61-13.46,10.65-16.87.57-.64,1.22-.72,1.87-.72h44.08l9.21-.01l7.4-.02v0m0-3l-16.6.01h-44.08c-.65,0-2.57.01-4.1,1.73-4.72,5.27-12.56,20.48-13.77,22.03-.08.1-6.27,2.3-9.09,3.99-1.12.67-1.74,2.12-1.9,3.62L-4.5,-67.9c-.64,4.1,1.7,5.82,5.37,5.82h91.51c2.8,0,5.1-.8,5.1-5.81v-19.79c0-.42-.04-.84-.13-1.24l-5.86-27.41c-.48-2.22-2.12-3.75-3.99-3.75v0Z" fill="#eee"/></g><path d="M120.47,93.93h-112.81c-.938866,0-1.839279-.372963-2.503158-1.036842s-1.036842-1.564292-1.036842-2.503158v-52.94c0-1.955088,1.584912-3.54,3.54-3.54h112.81c.938866,0,1.839279.372963,2.503158,1.036842s1.036842,1.564292,1.036842,2.503158v52.95c-.005512,1.951182-1.588811,3.530008-3.54,3.53Z" fill="none"/><rect width="7.99" height="8" rx="2" ry="2" transform="translate(60.001 41.99)" fill="#fff" stroke-width="0"/><rect width="7.99" height="8" rx="1" ry="1" transform="matrix(2.52691 0 0 1 95.83 41.99)" fill="#fff" stroke-width="0"/><rect width="7.99" height="8" rx="2" ry="2" transform="translate(85.17 41.99)" fill="#fff" stroke-width="0"/><rect width="7.99" height="8" rx="2" ry="2" transform="translate(72.1 41.99)" fill="#fff" stroke-width="0"/><rect width="7.99" height="8" rx="2" ry="2" transform="translate(95.615 53.98)" fill="#fff" stroke-width="0"/><rect width="7.99" height="8" rx="2" ry="2" transform="translate(108.03 53.98)" fill="#fff" stroke-width="0"/><rect width="7.99" height="8" rx="2" ry="2" transform="translate(83.005 53.98)" fill="#fff" stroke-width="0"/><rect width="7.99" height="8" rx="2" ry="2" transform="translate(72.1 53.98)" fill="#fff" stroke-width="0"/><rect width="7.99" height="8" rx="2" ry="2" transform="translate(60.07 53.98)" fill="#fff" stroke-width="0"/><rect width="7.99" height="8" rx="2" ry="2" transform="translate(108.06 65.97)" fill="#fff" stroke-width="0"/><rect width="32" height="8" rx="2" ry="2" transform="translate(72.1 65.97)" fill="#fff" stroke-width="0"/><rect width="7.99" height="8" rx="2" ry="2" transform="translate(60.001 65.97)" fill="#fff" stroke-width="0"/></svg>
